/* XPM */
static char * audio_file_xpm[] = {
"48 49 6 1",
" 	c None",
".	c #000000",
"+	c #FFFFFF",
"@	c #AAAAAA",
"#	c #C67171",
"$	c #555555",
"                            ..                  ",
"                          ..+.                  ",
"                        ..+++.   .           .  ",
"                      ..+++++. ...           .  ",
"                    ..+++++++..++.   .       .. ",
"                  ..+++++++..++++. ...       .. ",
"                ..+++++++..++++++..++.      . . ",
"              ..+++++++..++++++..++++.      . . ",
"            ..+++++++..++++++..++++++.   .  .  .",
"          ..+++++++..++++++..++++++++..  .  .  .",
"          .++++++..++++++..++..++++++. .. . .  .",
"          .++++..++++++..++..##..++++. .. . .   ",
"          .+++.++++++..+++.#####.+++..  . ..    ",
"          .+++.++++..++++.##.####.++..    ..    ",
"      .   .+++.+++.++++++.##..###.+++.     .    ",
"      .   .+++.+++.+++++.###...##.+++.     .    ",
"      .   .+++.+++.+++++.###.#..#.+++.          ",
"      .   .+++.+++.++++.####.#..#.+++.          ",
"      .   .+++.+++.++++.####.#.##.+++.          ",
"      ..  .+++.+++.++++.####.#.##.+++.          ",
"     . .  .+++.++..++++.###..####.+++.          ",
"     . .  ..++.+...++++.##...###.++++.          ",
"     . .  ..++.+.+.++++.##...###.++++.          ",
"     . .  ..++..++.++++.##..####.++++.          ",
"   . . .  ..+...++.++++.##..###.+++++.          ",
"   . . .  ..+..+++.+++++.######.+++++.          ",
"   . . .  .+...+++.+++++.####..++++++.          ",
".  . .  . .+...+++.+++++.....++++++++.          ",
".  . .  . .+.+.+++.++++++++++++++++++.          ",
" ... .  . .+.+.+++.++++++++++++++++++.          ",
" .. .   . .+.+.+++.++++++++++++++++++.          ",
" .. .   . .+++.+++.++++++++++++++++++.          ",
" .. .   . .+++.+++.++++++++++++++++++.          ",
"  . .   . .+++.+++.++++++++++++++++++.          ",
"  . .   . .+++.+++.+++++++++++++++++..          ",
"    .    ..+++.+++.+++++++++++++++..            ",
"         ..+++.+++.+++++++++++++..              ",
"         ..++..+++.+++++++++++..$               ",
"         .... .+++.+++++++++..$$$$$             ",
"         ..   .+++.+++++++..$$$$$$$$$           ",
"              .+...+++++..$$$$$$$$$$            ",
"              .. $.+++..$$$$$$$$$$              ",
"               $$$.+..$$$$$$$$$$                ",
"             $$$$$..$$$$$$$$$$                  ",
"          $$$$$$$$$$$$$$$$$$                    ",
"            $$$$$$$$$$$$$$                      ",
"              $$$$$$$$$$                        ",
"               $$$$$$$                          ",
"                 $$$                            "};
