/* XPM */
static char * midi_file_xpm[] = {
"28 49 9 1",
" 	c None",
".	c #000000",
"+	c #FFFFFF",
"@	c #8E388E",
"#	c #AAAAAA",
"$	c #F8F8F8",
"%	c #FEFEFE",
"&	c #FAFAFA",
"*	c #555555",
"                  ..        ",
"                ..+.        ",
"              ..+++.   .    ",
"            ..+++++. ...    ",
"          ..+++++++..++.   .",
"        ..+++++++..++++. ...",
"      ..+++++++..++++++..++.",
"    ..+++++++..++++++..++.+.",
"  ..+++++++..++++++..++...+.",
"..+++++++..++++++..++..@#.+.",
".++++++..++++++..++..#@#@.+.",
".++++..++++++..+++.@#@#@#.+.",
".+++.+$++++..+++..@.@#@#@.+.",
".+++.++++..+++..#@#..@#@#.+.",
".+++.+%+.+++..@#@#@....#@.+.",
".+++.+++.++.#@#@#@#.....#.+.",
".+++.+++.++.@#@#@#@.@...@.+.",
".+++.+++.++.#@#@#@#.#...#.+.",
".+%+.+++.++.@#@#@#@.@#..@.+.",
".+++.+++.++.#@#@#@#.#...#.+.",
".+%+.+++.++.@#@#@#@.@#.#@.+.",
".+++.+++.++.#@#@#@#.#@.@#.+.",
".+&+.+++.++.@#@#@#@.@#@#@.+.",
".+++.+++.++.#@#@#@#.#@#@#.+.",
".+%+.+++.++.@#@#....@#@#@.+.",
".+++.+++.++.#@#.....#@#@#.+.",
".+++.+++.++.@#@.....@#@#..+.",
".+++.%++.++.#@.....@#@..+.+.",
".+++.+++.++.@#.....#..+++.+.",
".+++.%++.++.#@#.....+++++.+.",
".+++.+++.++.@#@#..++...++.+.",
".+++.+++.++.#@..++++.++.+.+.",
".+++.+++.++...+++.++.++.+.+.",
".+++.%++.++.++.++.++.++.+.+.",
".+++.+%+.++++..++.++.+.++++.",
".+++.+++.+.++..++.++...++.. ",
".+++.+++.+...+.++.++.++..   ",
".++..%+%.+.+.+.++.+++..     ",
"... .+++.+.+++.++++..****   ",
".   .%+%.+.++++++..******** ",
"    .+...+.++++..*********  ",
"    .. *.++++..*********    ",
"     ***.++..*********      ",
"   *****...*********        ",
"********.*********          ",
"  **************            ",
"    **********              ",
"     *******                ",
"       ***                  "};
