/* XPM */
static char * mpg_file_xpm[] = {
"38 49 7 1",
" 	c None",
".	c #000000",
"+	c #AAAAAA",
"@	c #FFFFFF",
"#	c #555555",
"$	c #8E388E",
"%	c #C67171",
"                   ..                 ",
"                 ..@.                 ",
"               ..@@@.   .             ",
"             ..@@@@@. ...             ",
"           ..@@@@@@@..@@.   .         ",
"         ..@@@@@@@..@@@@. ...   ..... ",
"       ..@@@@@@@..@@@@@@..@@....#####.",
"     ..@@@@@@@..@@@@@@..@@@..########.",
"   ..@@@@@@@..@@@@@@..@@@..##.......#.",
" ..@@@@@@@..@@@@@@..@@@..##..$$$$$$.#.",
" .@@@@@@..@@@@@@..@@@..###.$$$$$$$$.#.",
" .@@@@..@@@@@@..@@...###...$$$$$$$$.#.",
" .@@@.@@@@@@..@@..####..$..$$$$$$$$.#.",
" .@@@.@@@@..@@..####..+$+..$$$$$$$$.#.",
" .@@@.@@@.@@..####..$+$+$..$$$$$$$$.#.",
" .@@@.@@@...####..+$+$+$+..$$$$$$$$.#.",
" .@@@.@@..####..$+$+$+$+$..$$$$$$$$.#.",
" .@@@...####...$+$+$+$+$+..$$$$$$$$.#.",
".....#####..%..+$+$+$+$+$..$$$$$$$$.#.",
".######...+%+..$+$+$+$+$+..$$$$$....#.",
".#......%+%+%..+$+$+$+$+$..$$...#####.",
".#.%+%+%+%+%+..$+$+$+$+$+....########.",
".#.+%+%+%+%+%..+$+$+$+$+$..####.......",
".#.%+%+%+%+%+..$+$+$+$+$..###..       ",
".#.+%+%+%+%+%..+$+$+$+..###..         ",
".#.%+%+%+%+%+..$+$+$..###..@.         ",
".#.+%+%+%+%+%..+$+..###....@.         ",
".#.%+%+%+%+%+..$..####..@.@..         ",
".#.+%+%+%+%+%...####..@@.@@@.         ",
".#.%+%+%+%+%..####..@.@@.@@..         ",
".#.+%+%+%+..####....@.@@.@...         ",
".#.%+%+%..#####.@.@.@....@@..         ",
".#.+%+..#####...@.@.@.@@.@@..         ",
".#....#####..@..@..@@.@@@....         ",
".########....@..@.@@@.@@@@@..         ",
".######...@...@.@.@@@...@..           ",
"..###..@@.@.@.@.@.@@@.@..             ",
" .....@@@.@.@@@.@.@@@..#              ",
" ... .@@@.@.@@@.@.@..#####            ",
" .   .@@@.@.@@@.@..#########          ",
"     .@...@.@@@..##########           ",
"     .. #.@.@..##########             ",
"      ###.@..##########               ",
"    #####..##########                 ",
" ##################                   ",
"   ##############                     ",
"     ##########                       ",
"      #######                         ",
"        ###                           "};
