/* XPM */
static char * toolIcon_xpm[] = {
"12 16 2 1",
" 	c transparent",
".	c black",
"........... ",
".         . ",
".         ..",
"............",
"  ..........",
"........... ",
".         . ",
".         ..",
".         ..",
".         ..",
".         ..",
".         ..",
".         ..",
".         ..",
"............",
"  .........."};
